<?xml version="1.0" encoding="utf-8"?>
<!-- Generator: Adobe Illustrator 19.2.0, SVG Export Plug-In . SVG Version: 6.00 Build 0)  -->
<svg version="1.1" id="Layer_1" xmlns="http://www.w3.org/2000/svg" xmlns:xlink="http://www.w3.org/1999/xlink" x="0px" y="0px"
	 viewBox="0 0 296 130.5" style="enable-background:new 0 0 296 130.5;" xml:space="preserve">
<g>
	<path d="M40.6,101.8c-2.2,6.1-3.7,12-6.4,17.2c-4.6,8.8-15.3,12.6-24.4,9.4c-10.4-3.6-13.3-17.2-4.7-24.1c4.1-3.3,9.2-5.4,14.2-7.3
		c2.6-1,3.5-2.3,4-4.5c2.7-12.9,5.4-25.9,8.1-38.8c2.3-11.1,4.6-22.2,7.1-33.3C41.2,7.6,49.4,0.2,60.8,0C72-0.2,78.4,7.6,76.2,19
		c-1.8,0-3.6,0-5.5,0c-0.1-3.2,0.4-6.7-3.9-7.5c-3.3-0.6-6.8,1.4-8.3,5.6c-1.7,4.7-2.7,9.7-4.2,15.2c3.6,0,6.4,0,9.6,0
		c-0.3,1.9-0.6,3.3-0.9,5.1c-3.1,0-6.2,0-9.5,0c-4.2,19.8-8.3,39.2-12.5,59c5.5,0,10.6,0,15.9,0c2.5-12,5.1-23.9,7.6-35.8
		C66.3,52,68,43.5,70,35c0.2-1,1.7-2.5,2.7-2.5c5.2-0.3,10.5-0.1,16.2-0.1c-0.4,2.5-0.7,4.7-1,7c3.4-2,6.6-4.4,10-5.9
		c8.2-3.5,15.1,1.7,13.9,10.2c-0.5,3.8-2.7,6.4-6.5,7.4c-4.3,1.2-6.6-0.1-7.8-4.5c-1.1-3.8-2.3-4.5-5.9-2.9c-3.5,1.5-6.1,3.7-6.9,8
		c-2.6,13.7-5.6,27.3-8.5,41c-0.2,1.1-0.4,2.2-0.7,3.6c13.3,0,26.5,0,40,0c-7.1-5.5-7.2-12.8-5.8-20.2c2.7-13.8,5.7-27.6,8.6-41.4
		c0.2-0.9,1.4-2.3,2.1-2.3c5.5-0.2,10.9-0.1,16.9-0.1c-1,5-1.9,9.6-2.9,14.2c-2.1,9.8-4.2,19.5-6.3,29.2c-0.1,0.6-0.4,1.3-0.3,1.8
		c0.4,2.3,0.4,6,1.7,6.6c2.1,1,5.5,0.6,7.7-0.4c3.7-1.8,5.6-5,5.9-9.6c1-12.8,4.6-24.8,13.8-34.3c6.8-7,15.3-9.7,24.9-8.4
		c8.3,1,11.8,7.7,9.6,17.3c-2.5,10.5-13.1,19.8-24.5,21.5c-1.3,0.2-2.7,0.4-4.8,0.7c0.2,3.5,0.1,7,0.6,10.4c0.6,3.5,3,5.3,6.6,5.6
		c9.5,0.8,16.6-3.6,22.5-10.5c0.6-0.7,0.7-2.1,0.8-3.1c1.6-12.6,5.2-24.4,14.5-33.7c5.9-6,13.2-8.9,21.7-7.4
		c2.8,0.5,5.4,2.3,8.1,3.5c1.5-7.2,3.3-15.3,4.9-23.5c0.5-2.3,1.4-3.3,3.8-3.6c5.2-0.5,10.3-1.4,16-2.2c-1.7,8.3-3.2,16-4.9,23.8
		c-3.3,15.6-6.8,31.2-10,46.8c-0.6,2.7-1.5,6,1.9,7.7c3.3,1.6,6.4,0.6,8.8-2.1c1.4-1.5,2.5-3.4,3.4-5.3c1.7-3.8,5.4-4.6,8.4-1.6
		c8.9,8.8,17.7,17.6,26.5,26.3c-9.8,9.7-19.5,19.2-29.1,28.7c0-5.8,0-12.2,0-19.6c-5.4,0-10.3,0.1-15.3,0c-14.3-0.5-28.6-1.1-43-1.8
		c-16.8-0.8-33.6-1.7-50.4-2.4c-12.6-0.5-25.2-0.8-37.8-1.3c-17.4-0.7-34.8-1.6-52.3-2.3c-5.2-0.2-10.5-0.4-15.7-0.6
		C48.4,102.3,44.3,102,40.6,101.8z M212,74.7c0.1,0.9,0.1,2.9,0.4,4.8c0.9,5,4.4,6.9,9,4.9c4.3-2,6.5-5.6,7.5-10.1
		c2-9,3.9-18,5.8-27c0.5-2.5,1-4.9-1.5-6.7c-2.6-1.8-5.5-1.4-7.6,0.4c-2.5,2.2-4.9,4.7-6.5,7.5C214.7,56.4,212.6,64.8,212,74.7z
		 M163.8,64.2c8.8-0.4,17-8.6,18.3-18c0.4-2.8,1.5-6.6-2.1-8c-3.3-1.3-5.6,1.7-7.3,4C167.9,48.7,165.6,56.2,163.8,64.2z M21.9,100.3
		c-5.9,2-10.5,3.8-13.3,8.4c-2.1,3.5-1.5,6.9,1.4,8.5c2.9,1.5,5.9,0.5,7.5-3.2C19.3,109.9,20.3,105.5,21.9,100.3z M199.9,96
		c-2.5-4.2-4.9-8.5-7.2-12.3c-5.1,3.9-10.7,8.2-16,12.3C184.4,96,192.6,96,199.9,96z M266.3,96c0-5.9,0-11.5,0-18.2
		c-3.7,8.3-8.2,14.5-16.8,18.2C255.9,96,261,96,266.3,96z M152.4,96.4c-2.8-3.2-5.7-6.5-8.2-9.4c-3.6,3-7.3,6.2-11.1,9.4
		C139.6,96.4,146.3,96.4,152.4,96.4z M234.2,95.9c-1.9-3.1-3.6-6-5.2-8.4c-2.6,2.7-5.6,5.7-8.3,8.4
		C224.9,95.9,229.7,95.9,234.2,95.9z"/>
	<path d="M142.2,15.1c-0.1,5.6-4.7,10.2-10.4,10.1c-5.6,0-10.2-4.7-10.1-10.4s4.7-10.4,10.2-10.3C137.7,4.6,142.2,9.2,142.2,15.1z"
		/>
</g>
</svg>
